<?xml version="1.0" ?><!DOCTYPE svg  PUBLIC '-//W3C//DTD SVG 1.1//EN'  'http://www.w3.org/Graphics/SVG/1.1/DTD/svg11.dtd'><svg height="43.3492mm" style="shape-rendering:geometricPrecision; text-rendering:geometricPrecision; image-rendering:optimizeQuality; fill-rule:evenodd; clip-rule:evenodd" version="1.1" viewBox="0 0 4335 4335" width="43.3492mm" xml:space="preserve" xmlns="http://www.w3.org/2000/svg" xmlns:xlink="http://www.w3.org/1999/xlink"><defs><style type="text/css">
   <![CDATA[
    .fil0 {fill:#009933}
    .fil6 {fill:#33CC66}
    .fil4 {fill:#6699FF}
    .fil5 {fill:#8CBFFF}
    .fil1 {fill:#FF6600}
    .fil2 {fill:#FF9933}
    .fil3 {fill:yellow}
   ]]>
  </style></defs><g id="Layer_x0020_1"><g id="_405894208"><path class="fil0" d="M2198 557c41,-2 99,-8 137,-27 65,-32 102,-19 93,14 -9,32 -83,125 -111,260 -28,135 -42,863 -42,1002 0,82 -33,124 -59,144l0 19c0,0 -7,-2 -17,-7 -10,5 -17,7 -17,7l0 -19c-27,-21 -59,-63 -59,-144 0,-139 -14,-867 -42,-1002 -28,-135 -102,-227 -111,-260 -9,-32 28,-46 93,-14 38,19 96,25 137,27zm-1588 1588c-2,-41 -8,-99 -27,-137 -32,-65 -19,-102 14,-93 32,9 125,83 260,111 135,28 863,42 1002,42 82,0 124,33 144,59l19 0c0,0 -2,7 -7,17 5,10 7,17 7,17l-19 0c-21,27 -63,59 -144,59 -139,0 -867,14 -1002,42 -135,28 -227,102 -260,111 -32,9 -46,-28 -14,-93 19,-38 25,-96 27,-137zm3177 0c2,-41 8,-99 27,-137 32,-65 19,-102 -14,-93 -32,9 -125,83 -260,111 -135,28 -863,42 -1002,42 -82,0 -124,33 -144,59l-19 0c0,0 2,7 7,17 -5,10 -7,17 -7,17l19 0c21,27 63,59 144,59 139,0 867,14 1002,42 135,28 227,102 260,111 32,9 46,-28 14,-93 -19,-38 -25,-96 -27,-137zm-1588 1588c41,2 99,8 137,27 65,32 102,19 93,-14 -9,-32 -83,-125 -111,-260 -28,-135 -42,-863 -42,-1002 0,-82 -33,-124 -59,-144l0 -19c0,0 -7,2 -17,7 -10,-5 -17,-7 -17,-7l0 19c-27,21 -59,63 -59,144 0,139 -14,867 -42,1002 -28,135 -102,227 -111,260 -9,32 28,46 93,14 38,-19 96,-25 137,-27z"/><g><path class="fil1" d="M1868 2120l304 -304c14,-14 37,-14 51,0l304 304c14,14 14,37 0,51l-304 304c-14,14 -37,14 -51,0l-304 -304c-14,-14 -14,-37 0,-51z"/><path class="fil2" d="M1943 2126l235 -235c11,-11 29,-11 39,0l235 235c11,11 11,29 0,39l-235 235c-11,11 -29,11 -39,0l-235 -235c-11,-11 -11,-29 0,-39z"/><path class="fil3" d="M2026 2132l159 -159c7,-7 19,-7 27,0l159 159c7,7 7,19 0,27l-159 159c-7,7 -19,7 -27,0l-159 -159c-7,-7 -7,-19 0,-27z"/></g><g><g><g><path class="fil4" d="M2198 152c132,0 239,107 239,239 0,132 -107,239 -239,239 -132,0 -239,-107 -239,-239 0,-132 107,-239 239,-239z"/><path class="fil5" d="M2198 222c93,0 169,76 169,169 0,93 -76,169 -169,169 -93,0 -169,-76 -169,-169 0,-93 76,-169 169,-169z"/></g><g><path class="fil4" d="M2198 3661c132,0 239,107 239,239 0,132 -107,239 -239,239 -132,0 -239,-107 -239,-239 0,-132 107,-239 239,-239z"/><path class="fil5" d="M2198 3731c93,0 169,76 169,169 0,93 -76,169 -169,169 -93,0 -169,-76 -169,-169 0,-93 76,-169 169,-169z"/></g></g><g><g><path class="fil4" d="M205 2145c0,-132 107,-239 239,-239 132,0 239,107 239,239 0,132 -107,239 -239,239 -132,0 -239,-107 -239,-239z"/><path class="fil5" d="M275 2145c0,-93 76,-169 169,-169 93,0 169,76 169,169 0,93 -76,169 -169,169 -93,0 -169,-76 -169,-169z"/></g><g><path class="fil4" d="M3714 2145c0,-132 107,-239 239,-239 132,0 239,107 239,239 0,132 -107,239 -239,239 -132,0 -239,-107 -239,-239z"/><path class="fil5" d="M3783 2145c0,-93 76,-169 169,-169 93,0 169,76 169,169 0,93 -76,169 -169,169 -93,0 -169,-76 -169,-169z"/></g></g></g><g><g><g><path class="fil0" d="M2538 1818c0,0 136,-643 321,-857 185,-214 1071,-662 1071,-662 0,0 -341,925 -390,1032 -49,107 -292,282 -1003,487z"/><path class="fil6" d="M2538 1818l1393 -1519c0,0 -390,1032 -1393,1519z"/></g><g><path class="fil0" d="M1880 1818c0,0 -136,-643 -321,-857 -185,-214 -1071,-662 -1071,-662 0,0 341,925 390,1032 49,107 292,282 1003,487z"/><path class="fil6" d="M1880 1818l-1393 -1519c0,0 390,1032 1393,1519z"/></g></g><g><g><path class="fil0" d="M2538 2431c0,0 136,643 321,857 185,214 1071,662 1071,662 0,0 -341,-925 -390,-1032 -49,-107 -292,-282 -1003,-487z"/><path class="fil6" d="M2538 2431l1393 1519c0,0 -390,-1032 -1393,-1519z"/></g><g><path class="fil0" d="M1880 2431c0,0 -136,643 -321,857 -185,214 -1071,662 -1071,662 0,0 341,-925 390,-1032 49,-107 292,-282 1003,-487z"/><path class="fil6" d="M1880 2431l-1393 1519c0,0 390,-1032 1393,-1519z"/></g></g></g><g><g><g><path class="fil4" d="M3017 1299c56,54 57,144 3,199 -54,56 -143,57 -199,3 -56,-54 -57,-144 -3,-199 54,-56 144,-57 199,-3z"/><path class="fil5" d="M2989 1329c40,38 41,101 2,141 -38,40 -101,41 -141,2 -40,-38 -41,-101 -2,-141 38,-40 101,-41 141,-2z"/></g><g><path class="fil4" d="M1574 2789c56,54 57,144 3,199 -54,56 -144,57 -199,3 -56,-54 -57,-143 -3,-199 54,-56 143,-57 199,-3z"/><path class="fil5" d="M1546 2819c40,38 41,101 2,141 -38,40 -101,41 -141,2 -40,-38 -41,-101 -2,-141 38,-40 101,-41 141,-2z"/></g></g><g><g><path class="fil4" d="M1351 1326c54,-56 143,-57 199,-3 56,54 57,144 3,199 -54,56 -144,57 -199,3 -56,-54 -57,-144 -3,-199z"/><path class="fil5" d="M1381 1354c38,-40 101,-41 141,-2 40,38 41,101 2,141 -38,40 -101,41 -141,2 -40,-38 -41,-101 -2,-141z"/></g><g><path class="fil4" d="M2841 2769c54,-56 143,-57 199,-3 56,54 57,144 3,199 -54,56 -144,57 -199,3 -56,-54 -57,-143 -3,-199z"/><path class="fil5" d="M2871 2798c38,-40 101,-41 141,-2 40,38 41,101 2,141 -38,40 -101,41 -141,2 -40,-38 -41,-101 -2,-141z"/></g></g></g></g></g></svg>