<?xml version="1.0" standalone="no"?>
<!DOCTYPE svg PUBLIC "-//W3C//DTD SVG 20010904//EN"
 "http://www.w3.org/TR/2001/REC-SVG-20010904/DTD/svg10.dtd">
<svg version="1.0" xmlns="http://www.w3.org/2000/svg"
 width="1962.000000pt" height="1962.000000pt" viewBox="0 0 1962.000000 1962.000000"
 preserveAspectRatio="xMidYMid meet">
<metadata>
Created by potrace 1.11, written by Peter Selinger 2001-2013
</metadata>
<g transform="translate(0.000000,1962.000000) scale(0.100000,-0.100000)"
fill="#000000" stroke="none">
<path d="M9679 19616 c-2 -2 -22 -7 -44 -10 -92 -14 -114 -19 -198 -47 -75
-25 -192 -79 -262 -122 -10 -7 -49 -35 -85 -63 -211 -165 -356 -384 -420 -634
-27 -103 -31 -137 -35 -275 -6 -205 33 -372 131 -567 l24 -48 -34 -14 c-51
-21 -76 -54 -76 -99 0 -47 40 -134 148 -326 211 -371 336 -680 397 -979 22
-111 28 -148 39 -252 22 -196 32 -319 51 -615 2 -33 7 -112 10 -175 3 -63 8
-146 10 -185 2 -38 6 -128 10 -200 3 -71 8 -175 10 -230 7 -133 13 -295 20
-490 3 -88 7 -218 10 -290 22 -621 42 -1520 50 -2198 3 -224 7 -420 9 -435 2
-15 7 -54 11 -87 l6 -60 -527 -527 c-290 -290 -530 -526 -533 -523 -25 15
-228 25 -601 30 -239 3 -518 7 -620 10 -102 2 -309 7 -460 10 -151 3 -340 8
-420 10 -80 2 -233 7 -340 10 -268 7 -492 14 -640 20 -69 3 -183 7 -255 10
-71 3 -179 7 -240 10 -60 3 -159 7 -220 10 -60 2 -150 7 -200 10 -49 3 -135 8
-190 10 -93 4 -144 7 -330 21 -115 8 -177 13 -240 19 -33 3 -82 8 -110 11
-204 19 -311 36 -455 73 -276 71 -544 186 -902 388 -193 109 -245 133 -286
133 -61 0 -98 -31 -117 -98 l-6 -22 -47 24 c-96 51 -223 96 -307 111 -16 3
-50 8 -75 12 -84 14 -310 8 -395 -11 -360 -80 -649 -298 -812 -611 -42 -82
-95 -228 -109 -300 -4 -22 -9 -49 -11 -60 -2 -11 -5 -85 -7 -165 -3 -154 10
-252 53 -385 91 -281 304 -531 571 -673 164 -87 350 -133 540 -134 188 -1 338
33 508 113 96 45 102 46 102 19 0 -11 13 -34 28 -51 45 -50 95 -46 223 19 57
29 136 71 174 93 121 72 325 174 455 228 69 29 134 56 145 61 39 18 273 88
310 94 20 4 40 8 44 10 3 3 26 7 51 11 25 4 47 8 50 10 3 2 26 6 50 9 67 8
131 16 170 21 51 6 214 20 360 30 41 3 102 7 135 10 78 6 215 14 340 20 55 3
141 7 190 10 50 3 149 7 220 10 72 3 175 8 230 10 745 31 1632 56 2555 70 720
11 753 12 810 20 30 4 61 9 68 10 11 1 1051 -1031 1071 -1064 5 -8 8 -19 6
-25 -17 -50 -17 -48 -30 -896 -3 -212 -8 -464 -10 -560 -2 -96 -7 -285 -10
-420 -3 -135 -7 -312 -10 -395 -3 -82 -7 -222 -10 -310 -13 -409 -22 -676 -30
-830 -2 -49 -7 -157 -10 -240 -3 -82 -8 -179 -10 -215 -2 -36 -7 -119 -10
-185 -3 -66 -8 -147 -10 -180 -2 -33 -7 -105 -10 -160 -3 -55 -7 -122 -10
-150 -2 -27 -7 -88 -10 -135 -3 -47 -8 -101 -10 -120 -3 -19 -7 -56 -10 -82
-13 -116 -16 -147 -25 -203 -15 -93 -20 -114 -41 -200 -21 -83 -91 -297 -114
-350 -7 -16 -30 -68 -50 -115 -43 -100 -185 -377 -241 -470 -61 -100 -115
-215 -118 -253 -5 -50 16 -91 57 -110 19 -9 40 -17 46 -17 6 0 1 -17 -12 -38
-13 -20 -40 -77 -60 -127 -96 -241 -109 -483 -39 -770 20 -83 91 -235 149
-319 183 -264 435 -435 743 -503 136 -30 400 -22 540 16 308 83 581 299 733
581 49 90 99 224 113 300 2 8 6 31 9 50 14 74 16 98 17 195 0 92 -6 169 -16
220 -25 118 -60 224 -109 321 l-35 72 38 6 c26 4 47 16 65 38 50 59 33 112
-121 384 -66 116 -214 407 -214 419 0 4 -9 26 -19 49 -86 181 -173 489 -196
691 -4 33 -9 67 -10 76 -2 8 -6 53 -10 100 -3 46 -8 95 -10 109 -2 14 -7 63
-10 110 -3 47 -8 112 -10 145 -11 143 -16 227 -30 510 -3 66 -7 156 -10 200
-3 44 -7 145 -11 225 -3 80 -7 186 -9 235 -2 50 -6 162 -9 250 -16 434 -21
589 -31 990 -3 121 -7 290 -10 375 -5 181 -15 720 -20 1070 -2 135 -4 306 -5
380 -1 74 -8 167 -14 207 l-13 72 524 523 c396 397 528 523 546 522 12 -1 38
-4 57 -8 36 -7 154 -10 860 -21 223 -4 470 -8 550 -10 273 -6 685 -16 810 -20
69 -2 215 -7 325 -10 204 -6 332 -10 580 -20 77 -3 190 -7 250 -10 183 -6 376
-15 450 -20 39 -3 126 -7 195 -10 69 -3 150 -8 180 -10 30 -2 98 -7 150 -10
52 -3 118 -8 145 -10 28 -2 84 -6 125 -10 120 -9 193 -16 220 -20 14 -2 52 -7
85 -10 277 -26 585 -122 919 -285 119 -58 160 -80 361 -193 229 -128 294 -133
341 -27 l16 36 64 -33 c108 -58 255 -102 389 -119 72 -9 226 -8 281 1 21 3 55
8 74 11 19 2 60 12 90 21 30 9 60 17 65 18 38 8 178 75 247 119 105 65 125 82
225 183 169 172 274 378 318 628 14 80 14 315 0 380 -57 269 -148 450 -312
620 -180 188 -383 294 -668 351 -16 3 -86 7 -155 9 -194 5 -384 -36 -552 -120
l-69 -35 -6 31 c-3 16 -19 44 -36 61 -27 27 -36 30 -76 26 -25 -3 -68 -15 -96
-28 -27 -13 -52 -24 -55 -24 -3 -1 -16 -9 -30 -18 -65 -41 -313 -174 -437
-234 -269 -129 -551 -224 -774 -258 -63 -10 -281 -35 -359 -41 -41 -4 -95 -8
-120 -10 -25 -2 -85 -7 -135 -10 -49 -3 -121 -7 -160 -10 -38 -3 -113 -7 -165
-10 -52 -3 -133 -7 -180 -10 -192 -11 -581 -27 -925 -39 -93 -4 -226 -9 -295
-11 -116 -4 -226 -8 -670 -20 -91 -2 -280 -7 -420 -10 -140 -3 -340 -8 -445
-10 -104 -2 -386 -7 -625 -10 -428 -6 -501 -8 -570 -20 -19 -3 -43 -7 -53 -8
-11 -1 -200 180 -537 518 -517 516 -520 519 -515 555 3 19 9 64 13 99 5 34 10
205 11 380 2 174 4 384 6 466 10 495 17 834 20 930 1 61 6 229 10 375 3 146 8
315 10 375 3 61 7 184 10 275 3 91 7 217 10 280 2 63 7 176 10 250 3 74 7 178
10 230 11 239 16 350 20 410 2 36 6 112 10 170 3 58 7 134 10 170 13 184 17
238 20 270 2 19 7 69 10 110 4 41 8 89 10 105 2 17 6 57 10 90 19 194 102 505
186 692 11 23 19 45 19 49 0 22 230 468 281 544 5 8 29 55 53 103 34 69 42 97
40 129 -4 48 -45 98 -80 98 -13 0 -25 4 -29 9 -3 5 11 43 30 83 35 72 79 194
90 253 22 116 27 163 27 266 -2 481 -290 902 -741 1085 -46 19 -93 36 -105 39
-12 2 -39 9 -61 14 -22 5 -56 12 -75 16 -37 7 -315 16 -321 11z"/>
<path d="M1393 18878 c23 -54 95 -240 123 -318 19 -52 38 -104 43 -115 5 -11
46 -121 91 -245 45 -124 86 -234 90 -245 5 -11 61 -162 125 -335 176 -476 286
-773 295 -795 12 -29 63 -165 105 -280 20 -55 41 -111 46 -124 8 -20 122 -321
194 -516 149 -398 287 -764 295 -780 5 -11 16 -38 23 -60 73 -211 428 -1114
487 -1240 125 -266 435 -549 925 -842 737 -442 1865 -903 3270 -1338 503 -156
735 -225 735 -219 0 3 -12 57 -26 122 -14 64 -28 128 -30 140 -8 43 -172 684
-209 822 -21 74 -39 144 -42 155 -3 11 -8 29 -13 40 -4 11 -20 65 -35 120 -40
145 -132 457 -146 490 -4 11 -31 92 -59 180 -53 165 -145 435 -161 470 -4 11
-34 88 -64 170 -31 83 -62 164 -70 180 -7 17 -27 66 -45 110 -192 476 -432
914 -645 1175 -298 365 -1024 889 -2245 1621 -8 5 -85 49 -170 99 -85 50 -162
94 -170 100 -8 5 -44 26 -80 46 -36 21 -105 61 -155 90 -87 50 -119 68 -215
122 -25 14 -94 53 -155 87 -429 243 -1188 653 -1715 928 -395 205 -408 211
-397 185z"/>
<path d="M18280 18872 c-19 -10 -120 -63 -225 -117 -104 -54 -221 -115 -260
-135 -38 -21 -117 -62 -175 -92 -231 -121 -425 -224 -465 -248 -16 -9 -70 -39
-120 -65 -94 -51 -147 -79 -230 -125 -27 -15 -79 -43 -115 -63 -36 -19 -102
-55 -146 -80 -45 -25 -106 -59 -135 -75 -43 -23 -367 -206 -539 -304 -853
-487 -1602 -958 -2091 -1313 -465 -339 -705 -567 -900 -856 -209 -311 -445
-808 -656 -1384 -100 -273 -265 -770 -309 -930 -2 -5 -33 -111 -69 -235 -36
-124 -74 -256 -85 -295 -89 -338 -166 -637 -185 -725 -2 -8 -13 -55 -25 -105
-12 -49 -23 -97 -25 -105 -2 -8 -9 -37 -15 -65 -6 -27 -14 -61 -16 -75 -3 -14
-7 -33 -10 -42 -4 -12 -1 -16 8 -13 14 5 170 51 308 91 359 105 1228 388 1555
508 39 14 90 32 115 41 25 8 54 20 65 24 11 5 94 37 185 71 91 33 174 65 185
70 11 5 81 34 155 64 556 225 1014 445 1395 669 242 143 505 331 635 453 25
23 54 51 65 61 23 21 110 117 140 154 39 48 96 140 121 197 95 213 557 1415
956 2487 39 105 76 204 83 220 7 17 27 68 43 115 17 47 85 230 151 408 67 178
137 367 157 420 19 53 41 113 49 132 8 19 23 60 34 90 20 57 72 198 114 310
13 36 72 193 130 350 58 157 126 338 151 403 25 66 46 121 46 123 0 8 -16 4
-50 -14z"/>
<path d="M7925 8311 c-825 -249 -1449 -460 -2050 -693 -71 -27 -143 -56 -160
-63 -16 -7 -64 -27 -105 -43 -100 -40 -337 -141 -433 -186 -43 -20 -81 -36
-83 -36 -3 0 -105 -49 -227 -108 -474 -231 -810 -432 -1096 -656 -95 -74 -257
-225 -306 -286 -115 -141 -153 -216 -290 -565 -54 -137 -103 -263 -110 -280
-7 -16 -61 -156 -119 -310 -59 -154 -111 -289 -116 -300 -5 -11 -43 -112 -85
-225 -42 -113 -80 -214 -85 -225 -5 -11 -38 -101 -75 -200 -37 -99 -77 -207
-90 -240 -13 -33 -39 -105 -60 -160 -20 -55 -57 -154 -82 -220 -26 -66 -52
-136 -59 -155 -25 -69 -225 -606 -239 -640 -7 -19 -43 -114 -78 -210 -157
-427 -301 -813 -438 -1180 -81 -217 -147 -396 -145 -397 5 -6 1058 546 1311
687 28 15 79 44 115 63 36 19 85 46 110 60 25 13 131 72 235 130 105 57 208
115 230 127 22 13 68 38 103 57 66 36 89 49 487 278 228 132 301 174 335 195
8 5 114 68 235 141 440 263 994 618 1255 804 105 75 344 251 375 276 440 360
559 495 809 922 120 205 343 700 473 1047 34 91 180 502 187 525 1 6 13 44 26
85 14 41 25 77 25 80 1 3 4 12 8 20 8 21 89 280 91 294 1 6 14 49 29 96 73
238 194 679 251 920 14 58 30 119 35 135 9 28 66 268 77 325 3 13 14 62 25
107 10 46 19 86 19 88 0 10 -32 1 -315 -84z"/>
<path d="M11491 8354 c5 -25 14 -65 20 -88 6 -22 13 -52 16 -66 2 -14 13 -59
23 -100 10 -41 21 -86 24 -100 19 -107 196 -771 286 -1075 28 -93 52 -178 55
-189 10 -42 102 -326 176 -546 44 -129 82 -239 83 -245 2 -5 6 -17 9 -25 4 -8
12 -33 20 -55 18 -52 106 -284 117 -310 5 -11 19 -45 31 -75 12 -30 30 -75 41
-100 12 -25 26 -61 33 -80 25 -67 146 -326 224 -475 182 -351 333 -567 534
-764 302 -296 835 -681 1592 -1151 195 -121 624 -380 630 -380 3 0 28 -15 57
-34 61 -38 443 -260 578 -334 19 -11 53 -30 75 -42 216 -123 736 -410 960
-530 44 -23 94 -50 110 -60 17 -9 80 -43 140 -75 61 -32 142 -75 180 -95 523
-278 825 -432 825 -422 0 6 -18 56 -41 113 -23 57 -101 266 -174 464 -73 198
-163 441 -200 540 -36 99 -79 214 -95 255 -16 41 -81 217 -145 390 -210 567
-266 715 -275 735 -5 11 -34 90 -65 175 -31 85 -67 182 -80 215 -12 33 -35 94
-50 135 -15 41 -33 89 -40 105 -13 30 -80 208 -160 425 -58 155 -273 720 -284
745 -5 11 -35 88 -66 170 -32 83 -63 164 -70 180 -7 17 -45 111 -85 210 -118
296 -163 369 -340 546 -116 116 -239 217 -405 331 -106 73 -370 238 -380 238
-3 0 -22 10 -43 23 -81 51 -400 215 -602 309 -173 82 -231 108 -235 108 -3 0
-33 13 -67 29 -35 16 -103 45 -153 66 -49 20 -103 43 -120 50 -16 8 -66 28
-110 45 -44 17 -89 35 -100 40 -11 6 -38 16 -60 24 -22 8 -62 23 -90 34 -622
239 -1326 475 -2067 693 -91 27 -178 53 -193 59 -48 18 -53 14 -44 -36z"/>
</g>
</svg>
