<?xml version="1.0" standalone="no"?>
<!DOCTYPE svg PUBLIC "-//W3C//DTD SVG 20010904//EN"
 "http://www.w3.org/TR/2001/REC-SVG-20010904/DTD/svg10.dtd">
<svg version="1.0" xmlns="http://www.w3.org/2000/svg"
 width="512.000000pt" height="512.000000pt" viewBox="0 0 512.000000 512.000000"
 preserveAspectRatio="xMidYMid meet">
<metadata>
Created by potrace 1.11, written by Peter Selinger 2001-2013
</metadata>
<g transform="translate(0.000000,512.000000) scale(0.100000,-0.100000)"
fill="#000000" stroke="none">
<path d="M2829 5015 c-4 -3 -19 -8 -35 -10 -16 -3 -43 -7 -59 -10 -17 -3 -37
-15 -45 -26 -8 -12 -30 -41 -48 -64 l-34 -44 -21 25 c-12 14 -29 26 -37 28 -8
2 -28 8 -45 15 -16 7 -49 14 -73 16 -36 4 -47 1 -68 -21 -19 -18 -24 -31 -20
-50 5 -18 2 -24 -9 -24 -23 0 -113 -61 -118 -80 -2 -8 0 -24 4 -35 13 -34 10
-85 -5 -91 -18 -7 -45 -12 -67 -13 -9 -1 -32 -16 -51 -34 l-36 -33 -33 28
c-48 41 -72 49 -106 36 -43 -16 -127 25 -177 86 -21 25 -44 46 -51 46 -8 0
-23 -16 -35 -35 -12 -19 -23 -35 -24 -35 -2 0 -16 6 -32 14 -61 30 -71 29 -92
-6 -84 -136 -79 -296 14 -488 17 -36 30 -66 29 -68 -2 -2 -18 3 -38 11 -51 22
-88 14 -153 -32 l-59 -41 -70 18 c-76 20 -160 21 -195 2 -17 -9 -20 -17 -15
-38 10 -42 44 -108 65 -127 14 -13 17 -22 10 -35 -16 -30 -38 -103 -45 -148
-5 -38 -4 -43 17 -51 15 -5 37 -3 63 6 76 28 81 27 99 -17 28 -70 60 -135 68
-138 4 -2 8 -8 8 -14 0 -6 11 -23 24 -39 23 -27 26 -69 5 -69 -5 0 -9 -8 -9
-19 0 -10 -11 -26 -25 -35 -33 -22 -85 -76 -85 -89 0 -12 -68 -77 -81 -77 -5
0 -15 -12 -22 -27 -6 -15 -24 -41 -39 -57 -15 -16 -25 -32 -23 -35 3 -2 -3
-13 -12 -24 -10 -10 -16 -20 -14 -21 8 -3 -11 -46 -21 -46 -5 0 -8 -6 -5 -14
3 -7 -1 -23 -9 -34 -7 -11 -16 -37 -18 -59 -2 -21 -7 -46 -11 -55 -4 -10 -5
-25 -2 -33 4 -8 3 -17 -2 -19 -4 -3 -6 -19 -3 -36 3 -19 0 -30 -8 -30 -8 0
-10 -8 -6 -24 4 -15 0 -28 -9 -36 -8 -7 -12 -16 -9 -22 3 -5 7 -30 8 -56 1
-26 8 -57 14 -69 7 -13 8 -24 3 -28 -12 -7 69 -189 116 -261 41 -63 120 -135
208 -189 50 -30 74 -52 95 -90 66 -113 66 -114 4 -55 -32 30 -61 57 -64 60
-18 18 -113 82 -160 107 -51 28 -131 58 -176 67 -10 3 -39 9 -64 15 -52 11
-145 21 -253 26 -41 2 -84 8 -95 14 -11 6 -23 11 -26 11 -10 0 -6 -44 8 -83 8
-20 10 -39 6 -42 -8 -5 -5 -33 7 -65 3 -8 6 -32 7 -52 1 -20 4 -40 8 -44 4 -4
5 -17 2 -29 -3 -13 0 -26 6 -30 9 -6 9 -9 0 -15 -8 -5 -9 -13 -4 -21 8 -14 9
-19 12 -72 1 -16 14 -39 30 -53 15 -14 27 -30 27 -34 0 -4 12 -22 28 -39 15
-17 27 -35 27 -41 0 -5 5 -10 10 -10 6 0 24 -14 40 -30 17 -17 30 -27 30 -23
0 4 6 1 13 -7 11 -15 67 -42 84 -42 4 0 15 -5 23 -12 8 -7 32 -12 53 -12 23 1
37 -4 37 -11 0 -7 9 -13 19 -13 11 0 22 -4 25 -8 2 -4 37 -9 78 -10 66 -3 79
0 143 32 39 20 102 58 140 86 111 79 156 110 159 110 1 0 3 -16 3 -36 0 -36
26 -70 44 -58 14 8 69 -111 81 -173 1 -5 5 -24 9 -43 15 -63 23 -182 22 -330
-1 -237 -1 -237 -46 -320 -42 -80 -109 -182 -139 -214 -10 -11 -18 -24 -18
-28 0 -12 51 2 80 22 14 9 31 15 39 12 8 -2 11 0 7 6 -3 5 16 21 43 35 38 20
51 23 61 14 10 -9 11 -9 5 1 -11 20 32 57 49 43 9 -8 13 -7 13 4 0 7 -5 13
-11 12 -6 -1 -11 5 -11 13 0 8 6 14 13 12 8 -1 11 2 8 7 -3 5 6 31 21 57 15
27 48 92 73 144 58 122 66 133 119 160 25 12 51 29 59 36 7 8 23 16 35 19 56
13 122 23 129 19 5 -3 8 0 8 5 0 6 -11 11 -25 11 -14 0 -25 4 -25 9 0 7 145
68 180 75 8 2 22 6 30 9 40 17 185 67 192 67 5 0 -2 -17 -15 -37 -45 -73 -60
-128 -53 -196 3 -34 11 -63 16 -65 6 -2 7 -15 4 -28 -3 -13 -2 -24 4 -24 13 0
19 -34 33 -180 1 -8 5 -19 10 -25 4 -5 7 -30 7 -55 -1 -42 19 -118 33 -130 11
-9 39 -69 37 -77 -2 -4 12 -23 30 -41 18 -18 30 -37 27 -42 -6 -10 41 -61 49
-53 3 3 8 -2 12 -11 3 -9 10 -14 14 -11 5 3 14 -1 22 -8 7 -7 22 -16 33 -21
16 -6 17 -9 5 -17 -11 -8 -10 -9 8 -4 12 3 22 2 22 -2 0 -5 7 -18 16 -29 8
-10 12 -13 8 -5 -4 9 -2 12 7 9 8 -3 13 -12 11 -19 -2 -8 0 -11 4 -7 3 4 18
-2 32 -12 30 -25 46 -26 34 -4 -5 9 -8 24 -6 33 14 72 14 73 32 59 15 -11 15
-11 5 3 -12 14 5 73 47 164 20 43 30 126 34 285 l3 116 -54 130 c-46 112 -62
139 -113 194 -113 122 -120 201 -24 251 82 41 145 83 211 137 34 29 66 52 71
52 21 0 -4 -65 -43 -108 -47 -53 -55 -70 -60 -142 -2 -27 -6 -54 -9 -59 -3 -5
1 -14 9 -21 8 -7 15 -25 15 -41 0 -16 5 -29 10 -29 6 0 10 -8 10 -18 0 -27 30
-85 52 -100 10 -7 18 -21 18 -31 0 -10 7 -24 15 -31 8 -7 15 -17 15 -23 0 -6
9 -20 20 -32 37 -38 70 -78 70 -85 0 -4 11 -19 25 -34 14 -15 25 -31 25 -37 0
-5 9 -9 20 -9 11 0 23 -7 27 -16 3 -8 16 -20 29 -25 13 -4 24 -15 24 -24 0 -8
6 -15 13 -15 7 0 26 -13 41 -29 16 -16 35 -27 42 -24 8 3 20 0 28 -6 8 -6 40
-14 72 -17 56 -4 72 -5 127 -4 12 0 53 0 91 0 46 0 75 5 85 14 12 11 21 12 34
5 13 -8 19 -6 23 5 4 11 12 13 27 7 12 -5 54 -8 92 -6 70 2 70 2 72 31 13 150
-12 267 -96 444 -113 241 -188 314 -489 480 -121 66 -140 73 -202 78 -48 3
-82 0 -116 -12 -26 -9 -49 -15 -50 -13 -6 6 109 137 120 137 8 0 21 -17 29
-38 24 -59 35 -64 98 -46 74 22 102 37 194 108 77 60 145 107 193 133 324 184
347 208 475 523 47 115 62 159 83 235 17 61 42 181 41 196 0 9 -7 16 -16 14
-8 -1 -36 5 -61 13 -65 21 -392 32 -440 14 -14 -5 -30 -7 -37 -5 -6 2 -14 -1
-18 -6 -3 -6 -15 -11 -25 -11 -10 0 -25 -6 -32 -13 -7 -8 -31 -13 -52 -12 -30
1 -42 -4 -53 -22 -9 -13 -23 -23 -32 -23 -9 0 -24 -9 -34 -20 -9 -11 -23 -20
-31 -20 -8 0 -16 -7 -20 -15 -3 -8 -13 -15 -23 -15 -10 0 -31 -16 -48 -36 -16
-19 -40 -47 -52 -60 -13 -14 -23 -34 -23 -45 0 -10 -5 -18 -11 -17 -5 2 -22
-17 -35 -42 -14 -25 -32 -55 -40 -67 -8 -12 -14 -31 -14 -43 0 -11 -6 -20 -14
-20 -8 0 -17 -6 -19 -12 -3 -7 -6 7 -7 32 -8 276 -43 405 -131 485 -21 19 -39
36 -39 38 0 2 22 -1 49 -6 42 -9 56 -7 107 13 49 20 79 44 179 145 157 159
224 197 453 261 76 21 97 46 95 114 -1 55 -47 152 -90 191 -42 37 -122 77
-173 84 -25 4 -50 11 -56 16 -7 5 -23 12 -35 14 -13 3 -25 9 -27 14 -2 6 -13
22 -24 37 -19 23 -27 26 -64 21 -56 -6 -49 7 31 67 57 43 121 68 210 81 66 9
74 15 86 55 7 22 20 48 31 59 24 27 23 31 -9 31 -36 0 -92 -15 -169 -46 -47
-18 -75 -23 -119 -20 -53 4 -95 25 -95 49 0 22 -46 70 -90 92 -47 24 -60 43
-60 94 0 26 20 62 90 161 67 95 73 113 49 144 -11 14 -30 28 -42 32 -12 3 -30
13 -40 22 -10 9 -38 15 -70 16 -51 1 -55 3 -87 44 -19 24 -44 51 -56 59 -41
26 -199 74 -254 77 -99 5 -170 54 -192 134 -2 7 -6 11 -9 7z m-1165 -1769 l65
-28 -26 -35 c-56 -73 -20 -148 86 -179 67 -20 220 -25 312 -11 36 5 91 7 122
3 l57 -7 -21 -40 c-53 -104 -127 -339 -113 -361 3 -4 -4 -8 -15 -8 -12 0 -21
-4 -21 -10 0 -5 -9 -10 -20 -10 -11 0 -28 -4 -38 -9 -27 -15 -56 -24 -68 -22
-7 1 -14 -5 -18 -14 -3 -8 -12 -15 -19 -15 -8 0 -22 -9 -32 -20 -10 -11 -26
-19 -36 -18 -9 2 -26 -8 -38 -20 -14 -16 -26 -22 -40 -17 -13 4 -23 0 -29 -10
-5 -9 -13 -17 -18 -17 -26 -1 -54 -20 -68 -45 -8 -15 -18 -26 -22 -23 -5 3
-15 -8 -24 -25 -8 -16 -34 -49 -57 -73 -24 -24 -43 -50 -43 -58 0 -8 -4 -14
-9 -14 -5 0 -8 -17 -8 -37 1 -23 -4 -43 -13 -49 -17 -14 -21 -203 -5 -244 10
-25 44 -80 55 -90 24 -20 38 -55 28 -67 -8 -10 -23 6 -65 74 -153 243 -164
275 -128 359 12 27 19 85 24 189 4 83 13 163 20 180 12 29 16 54 26 161 2 28
15 86 29 128 22 71 24 91 21 215 -5 154 -11 262 -20 310 -7 43 -8 45 -6 53 0
4 25 -10 55 -30 29 -21 83 -51 120 -66z m994 -382 c-2 -5 -6 -8 -10 -7 -4 2
-13 -7 -19 -20 -6 -12 -20 -30 -31 -40 -10 -10 -15 -23 -12 -29 4 -6 0 -16 -9
-23 -9 -7 -18 -23 -20 -35 -2 -13 -9 -26 -15 -28 -7 -2 -12 -16 -12 -32 0 -16
-7 -30 -16 -34 -9 -4 -14 -13 -10 -21 3 -9 -1 -18 -10 -22 -11 -4 -13 -13 -9
-34 4 -18 2 -29 -4 -29 -6 0 -11 -15 -11 -34 0 -19 -5 -38 -10 -41 -7 -4 -7
-12 -2 -18 4 -7 7 -32 6 -57 -1 -25 4 -74 12 -109 11 -47 11 -67 3 -77 -9 -11
-7 -15 5 -20 15 -6 24 -44 10 -44 -4 0 -97 73 -114 90 -3 3 -22 18 -42 33 -21
15 -38 32 -38 38 0 29 65 144 132 234 46 61 50 86 11 79 -15 -3 -30 -7 -35
-10 -4 -3 -14 -2 -20 3 -7 4 -31 8 -53 8 -38 0 -40 1 -37 30 7 65 85 287 113
321 11 13 252 -57 247 -72z m643 -936 c7 -13 15 -25 18 -28 22 -19 51 -74 51
-99 0 -30 -61 -121 -115 -171 -25 -23 -28 -24 -39 -8 -13 17 -6 113 11 163 4
11 7 22 8 25 4 30 41 140 47 140 4 0 13 -10 19 -22z m-1216 -28 c-3 -16 -8
-45 -11 -62 -3 -18 -7 -44 -9 -58 -11 -68 -19 -103 -41 -200 -13 -58 -39 -150
-56 -205 -17 -55 -32 -102 -33 -105 -6 -27 -58 -165 -85 -225 -19 -42 -57
-131 -69 -162 -8 -18 -16 -33 -20 -33 -3 0 -6 55 -6 123 -1 257 -24 395 -85
517 l-29 57 32 16 c35 18 42 23 132 81 68 45 195 168 245 239 18 26 35 47 37
47 2 0 1 -13 -2 -30z m860 -298 c33 -2 78 -5 100 -6 22 -1 52 2 68 7 38 13 77
1 77 -22 0 -28 -137 -139 -220 -179 -14 -6 -32 -16 -40 -20 -60 -34 -60 -34
-88 -4 -20 21 -34 56 -51 128 -14 54 -31 113 -38 131 -7 18 -13 34 -13 37 0 2
33 -13 73 -33 53 -27 87 -37 132 -39z m-760 -150 c0 -7 6 -16 13 -21 8 -5 13
-10 11 -12 -6 -11 16 -52 42 -79 73 -73 149 -95 239 -70 25 6 52 14 60 16 8 2
62 19 120 37 84 28 110 33 133 25 27 -10 24 -12 -65 -48 -51 -20 -167 -62
-258 -93 -91 -31 -194 -68 -229 -82 -74 -29 -85 -30 -78 -11 12 30 -7 23 -50
-18 -25 -24 -63 -53 -85 -65 -36 -19 -39 -19 -33 -4 4 10 8 23 9 28 2 6 8 22
14 36 19 46 101 292 112 337 8 32 15 42 28 40 9 -2 17 -9 17 -16z"/>
<path d="M1890 626 c0 -2 7 -7 16 -10 8 -3 12 -2 9 4 -6 10 -25 14 -25 6z"/>
<path d="M1827 599 c7 -7 15 -10 18 -7 3 3 -2 9 -12 12 -14 6 -15 5 -6 -5z"/>
<path d="M1775 511 c-3 -5 -2 -12 3 -15 5 -3 9 1 9 9 0 17 -3 19 -12 6z"/>
<path d="M1691 473 c0 -12 2 -13 6 -5 4 10 8 10 21 0 15 -12 16 -11 3 5 -7 9
-17 17 -22 17 -5 0 -9 -8 -8 -17z"/>
<path d="M1670 461 c0 -6 4 -13 10 -16 6 -3 7 1 4 9 -7 18 -14 21 -14 7z"/>
<path d="M2606 362 c-3 -5 1 -9 9 -9 8 0 12 4 9 9 -3 4 -7 8 -9 8 -2 0 -6 -4
-9 -8z"/>
<path d="M2655 340 c3 -5 8 -10 11 -10 2 0 4 5 4 10 0 6 -5 10 -11 10 -5 0 -7
-4 -4 -10z"/>
<path d="M2656 287 c3 -10 9 -15 12 -12 3 3 0 11 -7 18 -10 9 -11 8 -5 -6z"/>
<path d="M2833 175 c0 -8 4 -12 9 -9 5 3 6 10 3 15 -9 13 -12 11 -12 -6z"/>
</g>
</svg>
